PathFileType	4	(X/Y/Z)	C:/Users/opensim2020/Desktop/walking_exp_matlab/subject06_walking13_straight_01.trc	
DataRate	CameraRate	NumFrames	NumMarkers	Units	OrigDataRate	OrigDataStartFrame	OrigNumFrames	
100.00	100.00	6	50	mm	100.00	930	163	
Frame#	Time	LFHD			RFHD			LBHD			RBHD			C7			T10			CLAV			STRN			RBAK			LSHO			LUPA			LELB			LFRM			LWRA			LWRB			LFIN			RSHO			RUPA			RELB			RFRM			RWRA			RWRB			RFIN			LASI			RASI			LPSI			RPSI			LTHI			LKNE			LTIB			LANK			LHEE			LTOE			RTHI			RKNE			RTIB			RANK			RHEE			RTOE			*39			*40			*41			*42			*43			*44			*45			*46			*47			*48			*49			
		X1	Y1	Z1	X2	Y2	Z2	X3	Y3	Z3	X4	Y4	Z4	X5	Y5	Z5	X6	Y6	Z6	X7	Y7	Z7	X8	Y8	Z8	X9	Y9	Z9	X10	Y10	Z10	X11	Y11	Z11	X12	Y12	Z12	X13	Y13	Z13	X14	Y14	Z14	X15	Y15	Z15	X16	Y16	Z16	X17	Y17	Z17	X18	Y18	Z18	X19	Y19	Z19	X20	Y20	Z20	X21	Y21	Z21	X22	Y22	Z22	X23	Y23	Z23	X24	Y24	Z24	X25	Y25	Z25	X26	Y26	Z26	X27	Y27	Z27	X28	Y28	Z28	X29	Y29	Z29	X30	Y30	Z30	X31	Y31	Z31	X32	Y32	Z32	X33	Y33	Z33	X34	Y34	Z34	X35	Y35	Z35	X36	Y36	Z36	X37	Y37	Z37	X38	Y38	Z38	X39	Y39	Z39	X40	Y40	Z40	X41	Y41	Z41	X42	Y42	Z42	X43	Y43	Z43	X44	Y44	Z44	X45	Y45	Z45	X46	Y46	Z46	X47	Y47	Z47	X48	Y48	Z48	X49	Y49	Z49	X50	Y50	Z50	

82	0.810	-1064.30933	-20.25007	1633.39038	-933.36395	-34.40221	1618.53601	-1080.47778	-154.31696	1585.33386	-951.97040	-166.66135	1575.38879	-1026.10828	-169.49110	1425.15637	-1020.65485	-211.39642	1095.68225	-1017.84436	-60.98887	1343.33777	-1025.88354	-26.10504	1167.99963	-957.77429	-252.43675	1255.15698	-1182.38110	-106.76039	1380.32312	-1258.48889	-80.44954	1182.34131	-1274.26599	-60.66889	1072.26685	-1291.26746	48.56247	973.88324	-1242.64294	169.71097	941.72760	-1277.73499	134.30408	891.60736	-1277.40771	222.24146	871.26898	-859.30975	-117.48434	1375.19629	-779.69141	-199.76849	1188.78650	-767.73663	-216.75684	1067.14001	-750.01605	-231.55214	947.45142	-776.76239	-206.11208	797.10510	-740.82050	-260.94531	812.57245	-735.90509	-244.49480	730.10962	-1128.17712	-38.30831	929.94635	-905.52588	-29.92090	943.01984	-1092.29749	-194.83841	961.44202	-922.60504	-182.50279	966.02789	-1172.21350	-161.06621	623.85046	-1147.64856	-205.43567	464.50305	-1139.58606	-351.29941	247.70322	-1090.97681	-432.60568	95.22646	-1047.46130	-477.94199	96.78080	-1082.43713	-303.32727	32.57343	-842.70978	-15.35774	619.43591	-874.36322	28.87206	504.02551	-876.70831	59.31116	242.82164	-918.86560	105.74969	65.55744	-966.59204	75.40569	38.21773	-915.62756	261.28851	51.62769	-1014.47357	-124.26217	1674.50952																														 
83	0.820	-1062.85498	-9.36286	1634.25525	-931.90259	-23.27194	1619.35754	-1079.01355	-143.28856	1585.67957	-950.54303	-155.60715	1575.55249	-1024.53491	-158.34019	1425.52344	-1019.76202	-199.03346	1095.47766	-1016.47864	-49.72126	1343.92920	-1024.74280	-14.60174	1168.46814	-956.13684	-240.98154	1254.47241	-1181.39478	-95.84657	1380.21167	-1256.97461	-69.96532	1181.58801	-1272.76758	-50.70084	1071.44519	-1289.64856	58.06055	972.28674	-1241.07385	179.12178	939.39783	-1276.30884	143.24745	889.58582	-1275.98315	231.20174	868.69153	-857.63336	-105.94862	1375.05261	-778.46021	-187.18576	1187.83386	-766.49353	-203.45055	1066.00964	-749.10168	-217.81143	946.20721	-776.26392	-192.19615	795.94135	-740.24963	-246.72661	811.17230	-735.29700	-230.29329	728.94055	-1127.25098	-25.58902	929.70917	-904.34100	-16.97710	943.29126	-1091.48132	-182.06036	961.33557	-921.36804	-170.03658	967.40027	-1171.04492	-148.46419	623.22351	-1146.39441	-192.94785	463.92868	-1139.74792	-343.71704	250.70471	-1092.82581	-429.18326	100.33791	-1049.83899	-474.74066	103.55747	-1082.71948	-302.74185	32.52653	-841.90796	-2.33949	621.93890	-873.12030	40.12052	506.34940	-873.92590	69.95782	244.79599	-917.56598	110.39603	65.09095	-964.86829	78.23331	39.47335	-915.39093	264.81915	47.63990	-1012.92590	-113.58486	1674.85388																														 
84	0.830	-1061.29749	1.59178	1635.56372	-930.45819	-12.13791	1620.58142	-1077.46606	-132.26936	1586.78894	-949.04346	-144.42773	1576.64392	-1022.98035	-146.95850	1426.72449	-1019.17499	-186.57918	1095.97339	-1015.16119	-38.51885	1345.13184	-1023.46539	-2.80854	1169.63293	-954.38879	-229.58253	1254.74207	-1180.40979	-84.76776	1380.66284	-1255.40820	-59.67268	1181.37488	-1271.30591	-40.74738	1070.85828	-1288.03662	67.08179	970.69281	-1239.80750	187.93486	936.68372	-1274.77173	151.53796	887.29572	-1274.74658	239.12140	865.53900	-855.95355	-94.34464	1375.49268	-776.99402	-174.10986	1187.37305	-765.20795	-189.67044	1065.36707	-748.14362	-203.66501	945.41083	-775.68201	-177.69942	795.32025	-739.47949	-232.18604	810.34210	-734.70245	-215.57135	728.34064	-1126.06189	-12.90431	930.07642	-903.05676	-3.93760	944.75513	-1091.12183	-169.22615	961.87671	-921.21350	-157.50020	969.45422	-1169.67737	-135.06105	622.99042	-1144.98010	-178.87054	463.53491	-1139.86694	-335.12955	254.37218	-1094.56079	-425.17520	106.28046	-1051.94531	-470.58295	111.22877	-1082.93701	-302.02655	32.47771	-841.02557	10.65902	625.29596	-871.41193	51.32071	509.32373	-871.66150	79.09088	246.80405	-916.34412	113.02945	65.13499	-963.36499	79.82130	40.38046	-915.11652	266.88211	44.21696	-1011.36737	-102.66045	1676.09131																														 
85	0.840	-1059.90430	12.75633	1637.06042	-929.06976	-0.88145	1622.12805	-1075.84021	-121.17893	1588.44373	-947.45319	-133.17734	1578.38928	-1021.52313	-135.58876	1428.29102	-1018.74951	-174.58022	1097.25146	-1013.86865	-27.28471	1346.78613	-1022.20642	9.10927	1171.44055	-952.59521	-218.13110	1255.85425	-1179.34656	-73.32233	1381.72986	-1253.68542	-49.69797	1181.82190	-1269.47974	-30.95492	1071.07202	-1286.41418	75.58775	969.13623	-1238.39771	196.13780	933.52722	-1273.24158	158.83978	884.60944	-1273.57849	246.10503	861.78503	-854.41663	-82.71202	1376.57996	-775.41937	-160.57367	1187.49719	-764.01746	-175.46758	1065.35022	-747.14905	-189.01561	945.23633	-775.22675	-162.86353	795.27917	-738.65179	-217.17259	810.15198	-734.11035	-200.29288	728.14954	-1124.63965	-0.10501	931.01648	-901.92969	8.95893	947.51520	-1091.17737	-156.27879	962.50433	-921.49866	-145.56522	971.92468	-1168.21838	-120.88788	623.01410	-1143.47083	-163.41841	463.27231	-1139.71753	-325.65393	258.73029	-1096.04224	-419.87836	113.11279	-1053.74243	-465.04813	119.99976	-1082.99487	-300.88010	32.67443	-840.30048	23.13496	628.69330	-870.68335	63.51327	512.82532	-869.41913	85.48969	247.98755	-915.34357	114.00859	65.48083	-962.21313	80.25149	40.74992	-915.35272	267.78986	41.58805	-1009.85382	-91.33425	1677.73718																														 
86	0.850	-1058.61560	24.01295	1638.90137	-927.64117	10.48498	1623.95959	-1074.29602	-110.09177	1590.48193	-945.86816	-121.90997	1580.54590	-1020.16217	-124.27821	1430.11096	-1018.26715	-162.74425	1099.12537	-1012.57068	-15.88807	1348.77466	-1021.00110	20.97079	1173.59338	-950.95447	-206.09779	1257.58167	-1178.05493	-61.92531	1383.29456	-1251.93494	-39.78557	1183.01013	-1267.40796	-21.17825	1072.12646	-1284.45227	83.81146	968.06628	-1237.00134	203.57298	930.01227	-1271.58264	165.17245	881.77014	-1272.60876	251.88538	857.50836	-853.10803	-71.10195	1378.22083	-774.10181	-146.99590	1188.20386	-762.87744	-160.89317	1065.87512	-746.12994	-173.87033	945.69220	-774.73273	-147.37402	795.86200	-737.62457	-201.38980	810.49487	-733.52246	-184.44098	728.52094	-1122.90588	12.59608	932.48108	-900.79651	21.26901	951.01331	-1091.20581	-143.28247	963.74268	-921.76697	-133.86218	974.74622	-1166.65649	-106.01904	623.33087	-1142.14355	-146.69261	463.28500	-1139.65833	-314.75574	263.69412	-1097.34912	-413.42764	120.78608	-1055.20581	-458.11960	129.74486	-1082.66748	-300.01495	32.53300	-839.14526	35.40131	632.09729	-870.02301	75.13188	515.74359	-867.50690	90.18291	248.83331	-914.67145	114.86507	65.53024	-961.24475	80.65237	40.92828	-915.59070	268.52063	40.14685	-1008.34076	-79.87434	1679.87146																														 
87	0.860	-1057.13110	35.20804	1640.86609	-926.24860	21.76411	1626.07739	-1072.79895	-99.04508	1592.89722	-944.32269	-110.66052	1582.94141	-1018.86810	-113.16003	1432.08826	-1017.61139	-150.98238	1101.27612	-1011.38098	-4.44923	1351.10742	-1019.77979	32.96794	1176.11414	-949.57233	-194.49387	1259.44873	-1176.79431	-50.39745	1385.64758	-1250.37732	-29.50480	1184.94885	-1265.05420	-11.25316	1073.76196	-1282.45984	91.23907	967.02991	-1235.62646	210.38956	926.25543	-1269.84961	170.56886	878.79962	-1271.70581	256.69321	852.80347	-851.88379	-59.58399	1380.34485	-773.04590	-133.45137	1189.39648	-761.82477	-146.11446	1067.00708	-745.16370	-158.27780	946.73340	-774.32867	-131.50981	796.99835	-736.25330	-185.29027	811.55139	-732.93414	-167.82803	729.34772	-1121.02893	25.22693	934.47980	-899.47980	33.02211	954.84637	-1090.89954	-130.50850	965.48541	-921.73505	-122.09911	977.45087	-1165.13159	-90.50993	623.92633	-1141.22729	-128.75313	463.49771	-1139.08740	-302.66937	269.13071	-1098.21936	-405.39957	129.37486	-1055.85217	-449.48148	140.40964	-1082.32715	-299.06076	32.60835	-837.85083	47.16356	635.03021	-868.83667	85.19679	517.43579	-866.39880	95.27882	249.66389	-914.27661	116.04393	65.79329	-960.63800	81.08680	41.28966	-915.80615	269.43240	39.16795	-1006.89661	-68.60139	1682.06250																														 
